<?xml version="1.0"?>
<svg version="1.1" xmlns="http://www.w3.org/2000/svg"><path d=" M 98,0 L 294,0 L 392,170 L 294,340 L 98,340 L 0,170 Z" fill="#38AC00" stroke="#38AC00" stroke-width="1" stroke-linejoin="round"/><text x="245" y="318" dy="0.3em" fill="#000000" stroke="#000000" text-anchor="middle" font-family="Arial" font-size="17">-61007</text><circle cx="123" cy="212" r="51" fill="#FFFFFF" stroke="#FFFFFF" stroke-width="12"/><circle cx="269" cy="212" r="51" fill="#FFFFFF" stroke="#FFFFFF" stroke-width="12"/><path d="M 123,212 L 49,255" fill="none" stroke="#FFFFFF" stroke-width="34" stroke-linecap="butt" stroke-linejoin="round"/><path d="M 269,212 L 343,255" fill="none" stroke="#FFFFFF" stroke-width="34" stroke-linecap="butt" stroke-linejoin="round"/><path d="M 123,212 L 49,255" fill="none" stroke="#000000" stroke-width="26" stroke-linecap="butt" stroke-linejoin="round"/><path d="M 269,212 L 343,255" fill="none" stroke="#000000" stroke-width="26" stroke-linecap="butt" stroke-linejoin="round"/><circle cx="123" cy="212" r="51" fill="#FFFFFF" stroke="#000000" stroke-width="4"/><ellipse rx="13" ry="13" cx="196" cy="297" fill="#FFFFFF" stroke="#000000" stroke-width="2" stroke-linejoin="round"/><text x="196" y="297" dy="0.3em" fill="#000000" stroke="#000000" text-anchor="middle" font-family="Bookman Old Style" font-size="17">40</text><circle cx="269" cy="212" r="51" fill="#FFFFFF" stroke="#000000" stroke-width="4"/><ellipse rx="13" ry="13" cx="196" cy="297" fill="#FFFFFF" stroke="#000000" stroke-width="2" stroke-linejoin="round"/><text x="196" y="297" dy="0.3em" fill="#000000" stroke="#000000" text-anchor="middle" font-family="Bookman Old Style" font-size="17">40</text><text x="196" y="43" dy="0.3em" fill="#000000" stroke="#000000" text-anchor="middle" font-family="TimpaniHeavy" font-size="34">S</text><path d=" M 98,0 L 294,0 L 392,170 L 294,340 L 98,340 L 0,170 Z" fill="none" stroke="black" stroke-width="1" stroke-linejoin="round"/></svg>
